<svg xmlns="http://www.w3.org/2000/svg" xmlns:xlink="http://www.w3.org/1999/xlink" viewBox="0 0 380.52 93.93"><defs><style>.cls-1{fill:none;}.cls-2{fill:url(#未命名的渐变_5);}.cls-3,.cls-5{fill:#109050;}.cls-4{fill:#37b057;}.cls-5{fill-rule:evenodd;}.cls-6{clip-path:url(#clip-path);}.cls-7{fill:url(#未命名的渐变_4);}.cls-8{clip-path:url(#clip-path-2);}.cls-9{fill:url(#未命名的渐变_4-2);}.cls-10{fill:#00a84d;}</style><linearGradient id="未命名的渐变_5" y1="27.98" x2="55.95" y2="27.98" gradientUnits="userSpaceOnUse"><stop offset="0" stop-color="#f5e65b"/><stop offset="0.19" stop-color="#f5e355"/><stop offset="0.46" stop-color="#f5da43"/><stop offset="0.75" stop-color="#f5cc27"/><stop offset="0.96" stop-color="#f5cc27"/><stop offset="1" stop-color="#f5cc27"/></linearGradient><clipPath id="clip-path"><path class="cls-1" d="M4.92,38.22h0A9.2,9.2,0,0,0,3,40.64v.07A27.91,27.91,0,0,0,28,56c.48,0,.95,0,1.43,0A28,28,0,0,0,53.2,40.09L53.09,40c-1.56,2-7,8.34-15.09,9.25-9.67,1.09-16-2.49-23.35-9.77a11.62,11.62,0,0,0-3.37-2.23,7.16,7.16,0,0,0-2.39-.44,6.57,6.57,0,0,0-4,1.4"/></clipPath><linearGradient id="未命名的渐变_4" x1="177.47" y1="753.61" x2="180.16" y2="753.61" gradientTransform="matrix(0, 7.13, 7.13, 0, -5345.34, -1228.6)" gradientUnits="userSpaceOnUse"><stop offset="0" stop-color="#43b152"/><stop offset="0.27" stop-color="#3eae53"/><stop offset="0.61" stop-color="#2fa656"/><stop offset="0.97" stop-color="#16995c"/><stop offset="1" stop-color="#14985c"/></linearGradient><clipPath id="clip-path-2"><path class="cls-1" d="M26.5,0A28,28,0,0,0,2.74,15.9l.11.07c1.53-2,7-8.35,15.1-9.26,9.67-1.09,16,2.49,23.34,9.77a11.89,11.89,0,0,0,3.37,2.23,6.48,6.48,0,0,0,6.36-1h0a9.2,9.2,0,0,0,1.88-2.41v-.07A27.9,27.9,0,0,0,27.94,0c-.49,0-1,0-1.44,0"/></clipPath><linearGradient id="未命名的渐变_4-2" x1="174.23" y1="753.58" x2="176.91" y2="753.58" gradientTransform="matrix(0, 7.13, 7.13, 0, -5345.46, -1242.31)" xlink:href="#未命名的渐变_4"/></defs><title>资源 2</title><g id="图层_2" data-name="图层 2"><g id="图层_1-2" data-name="图层 1"><path class="cls-2" d="M0,28A28,28,0,1,0,28,0,28,28,0,0,0,0,28"/><path class="cls-3" d="M28,15.8a2.76,2.76,0,0,1,2.76,2.76v6.66h6.66a2.76,2.76,0,0,1,0,5.52H30.72V37.4a2.76,2.76,0,1,1-5.52,0V30.74H18.55a2.76,2.76,0,1,1,0-5.52H25.2V18.56A2.77,2.77,0,0,1,28,15.8m0-.27a3,3,0,0,0-3,3V25H18.55a3,3,0,1,0,0,6.06h6.38V37.4a3,3,0,0,0,6.07,0V31h6.38a3,3,0,0,0,0-6.06H31V18.56a3,3,0,0,0-3-3"/><path class="cls-4" d="M37.4,25.21H30.73V18.54a2.77,2.77,0,0,0-5.53,0v6.67H18.53a2.77,2.77,0,0,0,0,5.54H25.2v6.66a2.77,2.77,0,1,0,5.53,0V30.75H37.4a2.77,2.77,0,1,0,0-5.54"/><path class="cls-5" d="M53.1,40.05c-1.53,2.05-7,8.31-15.07,9.28-9.66,1.16-16-2.42-23.41-9.73a11.69,11.69,0,0,0-3.4-2.24A6.09,6.09,0,0,0,5,38.29a8,8,0,0,0-2,2.4A6.7,6.7,0,0,1,5,37.91a6.41,6.41,0,0,1,6.3-.93,11.58,11.58,0,0,1,3.37,2.26c7.35,7.37,13.68,11,23.34,9.9C46.09,48.21,51.48,42,53,40l.17.11,0,0Z"/><g class="cls-6"><rect class="cls-7" x="3.04" y="36.82" width="50.16" height="19.15"/></g><g class="cls-8"><rect class="cls-9" x="2.74" width="50.17" height="19.85"/></g><path class="cls-10" d="M90.55,10.32H61.81v2.11A3.16,3.16,0,0,0,65,15.59H90.49a7.13,7.13,0,0,1,7.13,7.13v2.17H65.36v5.27H97.61v3.11a7.11,7.11,0,0,1-7.11,7.11H65a3.18,3.18,0,0,0-3.18,3.18v2.09H90.39A12.39,12.39,0,0,0,98.5,42.6a12.76,12.76,0,0,0,4.39-9.17V22.66A12.66,12.66,0,0,0,90.55,10.32Z"/><path class="cls-10" d="M139.08,24.9H112.8V22.67a7.08,7.08,0,0,1,7.08-7.08h24.9A3.17,3.17,0,0,0,148,12.42v-2.1H119.88a12.35,12.35,0,0,0-12.35,12.35V33.3a12.36,12.36,0,0,0,12.35,12.36h19.2A8.87,8.87,0,0,0,148,36.79v-3A8.87,8.87,0,0,0,139.08,24.9Zm3.6,11.89a3.6,3.6,0,0,1-3.6,3.6h-19.2a7.1,7.1,0,0,1-7.08-7.09V30.17h26.28a3.6,3.6,0,0,1,3.6,3.59Z"/><path class="cls-10" d="M180.6,10.31H164.93a12.38,12.38,0,0,0-12.36,12.36V33.3a12.37,12.37,0,0,0,12.36,12.36H180.6A12.37,12.37,0,0,0,193,33.3V22.67A12.37,12.37,0,0,0,180.6,10.31Zm7.08,23a7.1,7.1,0,0,1-7.08,7.09H164.93a7.1,7.1,0,0,1-7.09-7.09V22.67a7.1,7.1,0,0,1,7.09-7.09H180.6a7.1,7.1,0,0,1,7.08,7.09Z"/><path class="cls-10" d="M341.55,20.81a6.56,6.56,0,0,0,4.67-2.28L348.41,16a5.16,5.16,0,0,1,1.5-1.17c.41-.21,1.53-.47,4.51-.47h11.63a8.19,8.19,0,0,1,2.35.41,4.26,4.26,0,0,1,2,1.4l2.33,2.64a6.32,6.32,0,0,0,4.43,2c.77.05,1.81.08,3.08.08h.31V16.44h-.31a12.56,12.56,0,0,1-3-.31,3.89,3.89,0,0,1-1.9-1.39l-2.24-2.82a4.82,4.82,0,0,0-1.68-1.32c-1.06-.57-2.95-.85-5.76-.85H351.79c-3,0-5.13.78-6.38,2.31l-2.58,3.21c-.62.78-1.9,1.17-3.8,1.17h-.9v4.43h.31C339.75,20.87,340.79,20.86,341.55,20.81Z"/><path class="cls-10" d="M361.7,41.71V35.27h14.92a2.54,2.54,0,0,0,2.54-2.54v-2H361.7V25.84h14.92a2.54,2.54,0,0,0,2.54-2.54V21.25H339.49v4.59h17.4v4.84h-17.4v4.59h17.4v6.44H338.13V46.3H378a2.54,2.54,0,0,0,2.54-2.54v-2Z"/><path class="cls-10" d="M295.61,17.71a1.48,1.48,0,0,1,.76-1.41,6.17,6.17,0,0,1,2.7-.43l27.12.05a2.76,2.76,0,0,1,2.08.82,1.19,1.19,0,0,1,.43.85l0,1.69h4.43V16.62a4.58,4.58,0,0,0-1.77-3.56,7.49,7.49,0,0,0-4.93-1.4h-12v-2H309.9v2l-12.61,0A6.82,6.82,0,0,0,293,12.9,5.1,5.1,0,0,0,291.08,17L291,19.28h4.53Z"/><path class="cls-10" d="M330.43,41.91a55.11,55.11,0,0,1-6.57-.33A57.48,57.48,0,0,1,318,40.43c4.26-1.71,6.55-2.64,7-2.87A9.65,9.65,0,0,0,327.26,36c1.41-1.34,2.13-3.36,2.13-6V27.11h1.72a2.12,2.12,0,0,0,2.19-2.05V22.81h-3.91V20h-4.53v2.8H299.54V20H295v2.8h-3.68l0,4.3H295l.05,4.05a5.85,5.85,0,0,0,1.77,4.47,14,14,0,0,0,4.5,2.81l5.13,2a43.62,43.62,0,0,1-7.78,1.24c-2.17.15-4.65.23-7.38.23h-.17v4.14h.17c7.32-.12,12.81-.73,16.32-1.81,1.1-.34,2.63-.86,4.53-1.57,1.73.66,3.14,1.15,4.18,1.44a50.21,50.21,0,0,0,8.1,1.47,77.42,77.42,0,0,0,8.56.47h.16l.15-4.16h-.18C331.8,41.91,330.9,41.91,330.43,41.91ZM312.2,38.28l-9-3.55a8,8,0,0,1-2.63-1.52,3.77,3.77,0,0,1-1-2.73l0-3.37h25.32V30a4.57,4.57,0,0,1-3.26,4.53Z"/><path class="cls-10" d="M195.48,14.65h8.67V41.32h-2.9V19.24h-4.63V41.32h-1.14v4.32H212.1a4.28,4.28,0,0,0,4.42-4.13v-.19h-7.75V28h7.75V23.79h-7.75V14.65h3.32a4.29,4.29,0,0,0,4.43-4.14v-.18h-21Z"/><path class="cls-10" d="M225.86,9.07h-4.7l0,.14c-1.11,4-1.93,6.44-2.45,7.2A3.44,3.44,0,0,1,217,17.49l-.13,0v4.25l.23,0a8,8,0,0,0,4.36-1.89A10,10,0,0,0,223.92,16h7.47c-.33,5.5-.62,9-.86,10.47a23.2,23.2,0,0,1-2.41,7,22.81,22.81,0,0,1-2.18-4.94,70.75,70.75,0,0,1-1.67-7.25l0-.16H219.7l0,.22a47.63,47.63,0,0,0,3.65,12.23c.33.64,1,1.75,2,3.38a20.91,20.91,0,0,1-6.78,4.34l-.12,0v4.44l.26-.09a34.47,34.47,0,0,0,4.88-1.93,27,27,0,0,0,4.82-3.26A34.38,34.38,0,0,0,231.78,43a30.59,30.59,0,0,0,6,2.69l.27.09V41.36l-.13,0a20.41,20.41,0,0,1-6.68-3.91,30.4,30.4,0,0,0,2.57-5,36.38,36.38,0,0,0,1.42-5.83,93.18,93.18,0,0,0,1-10.51h1.9V11.69H225.22Z"/><path class="cls-10" d="M267.06,31.58h14.43A3.53,3.53,0,0,0,285,28V27h-18V18.58h-5V41.17h-9.24V24.92h-5V41.17H243v4.52h38.56a3.54,3.54,0,0,0,3.54-3.53v-1h-18Z"/><path class="cls-10" d="M281.85,18.88a3.73,3.73,0,0,1-2-1.92l-2-4A6.8,6.8,0,0,0,275.43,10c-1-.63-2.73-.93-5.28-.93H256.73a6.82,6.82,0,0,0-6.6,3.94L248.19,17a3.57,3.57,0,0,1-2.39,2.1,15.83,15.83,0,0,1-2.63.16h-.3v4.55h.32a17.33,17.33,0,0,0,4.73-.63,7.25,7.25,0,0,0,4.27-3.77l2.22-4.46a2.61,2.61,0,0,1,1.17-1.05,4.21,4.21,0,0,1,1.56-.18h13.14a8.7,8.7,0,0,1,2.33.19,2.65,2.65,0,0,1,1.22,1.38l2.63,4.79a6.22,6.22,0,0,0,3.11,2.84,14.91,14.91,0,0,0,5.51.89h.31V19.24h-.31A9.94,9.94,0,0,1,281.85,18.88Z"/><path class="cls-10" d="M17.15,93.76c-.06-.12-.18-.38-.35-.78s-.41-.73-.52-1a26.87,26.87,0,0,0,5.21-1.47c-1.22-.64-2.49-1.25-3.82-1.83a17.18,17.18,0,0,1,1.3-2H16.54V85.17h3.38a7.84,7.84,0,0,0,.61-1l.26-.52,1.83.26c-.18.35-.41.75-.7,1.22h4.86v1.65a8.51,8.51,0,0,1-2,3.29l2.25,1-1,1.39c-.93-.4-1.82-.84-2.69-1.3A20.61,20.61,0,0,1,17.15,93.76Zm-.44-14.41V77.7h4.78V73.1h1.82v4.6h4.17v1.65H23.31v1.82l.69-1c1.16.64,2.12,1.21,2.87,1.73l-.09-.17a31.17,31.17,0,0,0,3.65-8.94l1.82.35c-.35,1.21-.72,2.37-1.13,3.47H37.2v1.82H35.63Q35,85,33.12,88.2a13.29,13.29,0,0,0,4.25,3.56c-.46.64-.87,1.25-1.21,1.82A18.4,18.4,0,0,1,32,89.85a21.42,21.42,0,0,1-4.34,4c-.12-.18-.32-.44-.61-.79a8.91,8.91,0,0,1-.69-.86,17.3,17.3,0,0,0,4.6-4,18.2,18.2,0,0,1-2.09-6.51l-.26.53a10.56,10.56,0,0,1-.69,1.12,6.19,6.19,0,0,1-.43-.52,2.45,2.45,0,0,1-.26-.43l-.87,1.3C26,83.4,25.22,82.82,24,82c-.29-.17-.52-.31-.69-.43v1.74H21.49V80.83A13.68,13.68,0,0,1,17.32,84q-.53-.87-.87-1.56a12.54,12.54,0,0,0,4.6-3Zm2.69-2c-.63-.75-1.41-1.59-2.34-2.51l1.22-1a25,25,0,0,1,2.43,2.43Zm.52,10.77c1,.4,2.09.84,3.13,1.3a5.49,5.49,0,0,0,1.82-2.69h-4c-.12.17-.26.38-.43.61S20,87.94,19.92,88.12Zm5.21-10.77-1.21-1a18.64,18.64,0,0,0,2.51-2.43l1.22.87A21.27,21.27,0,0,1,25.13,77.35Zm5,1.74A23.58,23.58,0,0,0,32,86.38a19.62,19.62,0,0,0,1.82-7.9H30.43Z"/><path class="cls-10" d="M59.2,87.42V85.51H69V84.3l4.17-2.43H63V80.05h13.2V82l-5.13,3v.6h9.12v1.91H71.09v3.3c.12,1.79-.84,2.72-2.86,2.78h-3.3a12.75,12.75,0,0,0-.35-2c1,.06,1.91.09,2.78.09,1.16.06,1.71-.44,1.65-1.48V87.42ZM60,80.31V75.79H69.1a21.51,21.51,0,0,0-1-2.6l2.34-.35c.12.35.35,1,.69,1.91a6.66,6.66,0,0,1,.35,1l-.61.08h8.6v4.52H77.34V77.7H62v2.61Z"/><path class="cls-10" d="M102.87,85.69c-.12-.35-.29-.87-.53-1.57a6,6,0,0,1-.34-1,32.23,32.23,0,0,0,5.64-10.07l2.08.7a37.08,37.08,0,0,1-2.43,5.2V93.67h-2V82.3A40.74,40.74,0,0,1,102.87,85.69Zm6.33,2.08a12.14,12.14,0,0,0-.87-1.3A3.56,3.56,0,0,1,108,86a53.19,53.19,0,0,0,4.94-2.78V73.36h2.17v8.25a33.7,33.7,0,0,0,5.73-5.73l1.65,1.39a39.89,39.89,0,0,1-7.38,6.94v5.38c0,1.16.52,1.71,1.74,1.65h1.82c1.22,0,1.88-.46,2-1.39a17.45,17.45,0,0,0,.17-1.82c.12-.81.2-1.42.26-1.82.46.17,1.16.4,2.09.69-.18,1.45-.38,2.75-.61,3.91-.23,1.56-1.48,2.31-3.73,2.25h-2.61q-3.47.18-3.3-3.21V85.69A40.39,40.39,0,0,1,109.2,87.77Z"/><path class="cls-10" d="M145,83.78V81.87h6.5a39.39,39.39,0,0,0,1.91-3.56l2.26.61c-.17.29-.4.66-.69,1.13l-1,1.82H166v1.91h-4.08a11.78,11.78,0,0,1-3.65,5.29c.53.23,1.33.58,2.43,1l4.17,1.57-1.13,2q-3.9-1.9-7.37-3.21a34,34,0,0,1-9.81,3.3,8.15,8.15,0,0,0-.78-1.65,3.11,3.11,0,0,0-.18-.43,25.79,25.79,0,0,0,8.51-2.17l-5.82-2.61c.18-.29.47-.72.87-1.3.52-.81.93-1.42,1.22-1.82ZM162.84,80V77.62H148.09v2.25H146V75.79h9l-.86-1.73a3.45,3.45,0,0,1-.35-.7l2.17-.43a8,8,0,0,1,.69,1.3l.7,1.39-.78.17h8.33V80Zm-11.71,6.33c.69.24,1.79.64,3.3,1.22.75.29,1.33.52,1.73.69a10.39,10.39,0,0,0,3.47-4.42h-6.85c-.24.34-.58.87-1,1.56A6.6,6.6,0,0,0,151.13,86.29Z"/><path class="cls-10" d="M207.81,82.3q-6.6-3.3-9.29-7.2A30.9,30.9,0,0,1,189,82.48c-.46-.76-.86-1.36-1.21-1.83q6.77-3.3,9.89-7.81l2.35.26-.35.61a22.75,22.75,0,0,0,9.29,6.68Zm-15.8.35V80.74h12.85v1.91h-5.38v3h6.68V87.6h-6.68V91h8.59v1.74H188.71V91h8.6V87.6h-6.69V85.69h6.69v-3Z"/><path class="cls-10" d="M231.51,93.5v-17h2.34l.26-1a14.19,14.19,0,0,0,.61-2.51l2.17.34c-.29,1-.61,2.09-1,3.13h3.91V93.32h-1.91V91.68H233.5V93.5Zm2-15.1v4.77h4.43V78.4Zm0,6.68v5h4.43v-5Zm9.72,8.24a9.89,9.89,0,0,0-.43-2.08q1.13.09,3.39.09c1.61.11,2.43-.61,2.43-2.17q.16-1.91.26-8.16c0-1.22.08-2.08.08-2.6h-5.2c-.24.52-.61,1.27-1.13,2.25l-.52,1c-.52-.34-1.1-.69-1.74-1A36,36,0,0,0,243.57,73l2,.43c-.12.35-.29.84-.52,1.47s-.41,1.22-.52,1.57H251q0,5.55-.35,13c0,2.48-1.24,3.76-3.73,3.81Zm2-6-1.3-1.83c-.81-1.21-1.45-2.14-1.91-2.77l1.56-1c.41.58,1,1.39,1.82,2.43.7.87,1.22,1.57,1.57,2.09Z"/><path class="cls-10" d="M282,80.22q-1.91-2.52-3.3-4.51a33.29,33.29,0,0,1-4.25,6.42,15.33,15.33,0,0,0-.87-1.91,25.3,25.3,0,0,0,4.26-7.2l2,.26a1,1,0,0,1-.17.34c-.06.18-.12.32-.17.44.46.52,1.12,1.3,2,2.34s1.45,1.77,1.91,2.34ZM279.9,93.5c-1.27-1.33-3.07-3.07-5.38-5.21l1.13-1.21c.29.23.72.6,1.3,1.12s.92.84,1.21,1.13l2.35-4.25h-6.16V83.34h8.15v1.83l-3,5.38,1.73,1.56Zm-1.13-10.85a25.08,25.08,0,0,0-1.73-3l1.38-.87a1.58,1.58,0,0,0,.26.35,18.83,18.83,0,0,1,1.57,2.6Zm14.58,10.93c-1-.92-2.34-2.14-4.08-3.64a5.82,5.82,0,0,1-.6-.52c-.7,1.45-2.46,3-5.3,4.51a3.93,3.93,0,0,1-.43-.52c-.41-.52-.7-.87-.87-1,2.31-1.1,3.82-2.14,4.51-3.12a7.42,7.42,0,0,0,1.22-4.6V81.26h1.82v3.39a12.31,12.31,0,0,1-.35,3.12l5.38,4.43ZM282.76,75.71V74h11.89v1.74h-5L289,78.4h4.78v10h-1.74V80.05h-6.68v8.5h-1.74V78.4H287l.52-2.69Z"/><path class="cls-10" d="M316.49,87.86V86.12h14.67v-1.3h2.08v1.3h4.25v1.74h-4.25v2.6q.17,3-3.13,3H326.9c-.11-.52-.26-1.16-.43-1.91h2.86q2,.18,1.83-1.56V87.86h-9.64a38.64,38.64,0,0,1,3.56,3l-1.56,1.22c-.47-.46-1.3-1.19-2.52-2.17-.46-.4-.78-.69-.95-.87l1.12-1.21ZM321.61,84c-2.08.06-3.1-.92-3-3V73.88h15.8v6H320.65v.7c0,1.21.52,1.79,1.74,1.73h10.33q2,.09,2.25-1.47a3.51,3.51,0,0,1,.09-.61c.12-.58.2-1,.26-1.39a15.89,15.89,0,0,0,2,.69c-.18.87-.38,1.68-.61,2.43-.4,1.39-1.59,2.06-3.56,2Zm-1-8.33v2.52h11.63V75.62Z"/><path class="cls-10" d="M361.67,77.09V75.45h5.73V73h2v2.43h5v1.64h-5v2.52H372a35.36,35.36,0,0,0,5.64-5.29l1.65,1.13A49,49,0,0,1,375,79.61h5.47v1.74H372.6A27.4,27.4,0,0,1,369,83.6h8.51V93.76h-2V92.63H365.31v1.13h-2V86.38c-1,.41-2.09.84-3.3,1.3a11.76,11.76,0,0,0-.69-1.91,46.14,46.14,0,0,0,10.06-4.42h-9.72V79.61h7.73V77.09Zm13.8,8.16h-9.72l-.44.18v2h10.16ZM365.31,89v2.17h10.16V89Z"/></g></g></svg>